<svg xmlns="http://www.w3.org/2000/svg" xmlns:xlink="http://www.w3.org/1999/xlink" width="300" viewBox="0 0 300 75" height="75" version="1.0"><defs><clipPath id="a"><path d="M 26.242188 9.464844 L 75.742188 9.464844 L 75.742188 65.714844 L 26.242188 65.714844 Z M 26.242188 9.464844"/></clipPath><clipPath id="b"><path d="M 26.25 65.714844 C 39.382812 64.808594 39.601562 55.019531 41.269531 44.609375 C 39.589844 45.582031 38.171875 46.957031 37.136719 48.613281 C 36.566406 45.042969 37.722656 41.332031 40.605469 37.480469 C 37.921875 37.894531 35.746094 37.1875 34.070312 35.371094 C 40.214844 34.6875 44.765625 32.457031 47.722656 28.679688 C 44.949219 28.078125 43.4375 26.328125 43.1875 23.429688 C 44.71875 24.785156 46.527344 25.472656 48.613281 25.492188 C 47.265625 24.957031 46.507812 24.101562 46.34375 22.933594 C 47.410156 23.566406 48.164062 23.835938 48.613281 23.742188 C 56.765625 23.339844 60.648438 22.875 62.53125 26.390625 C 65.410156 26.246094 68.058594 26.824219 70.46875 28.121094 C 42.257812 31.738281 53.40625 59.105469 69.78125 41.722656 C 73.003906 38.300781 75.183594 33.867188 75.648438 29.039062 C 76.675781 18.273438 68.796875 9.46875 58.132812 9.46875 L 35.269531 9.46875 L 26.25 65.71875 Z M 26.25 65.714844" clip-rule="evenodd"/></clipPath><linearGradient x1="753.543" gradientTransform="matrix(.05266 0 0 .05316 26.25 9.467)" y1="-99.332" x2="106.325" gradientUnits="userSpaceOnUse" y2="1114.818" xlink:type="simple" xlink:actuate="onLoad" id="c" xlink:show="other"><stop stop-color="#FF914D" offset="0"/><stop stop-color="#FF914D" offset=".125"/><stop stop-color="#FF924D" offset=".133"/><stop stop-color="#FF934D" offset=".141"/><stop stop-color="#FF934D" offset=".148"/><stop stop-color="#FF944D" offset=".156"/><stop stop-color="#FF954E" offset=".164"/><stop stop-color="#FF954E" offset=".172"/><stop stop-color="#FF964E" offset=".18"/><stop stop-color="#FF974E" offset=".188"/><stop stop-color="#FF984E" offset=".195"/><stop stop-color="#FF984E" offset=".203"/><stop stop-color="#FF994E" offset=".211"/><stop stop-color="#FF9A4E" offset=".219"/><stop stop-color="#FF9A4E" offset=".227"/><stop stop-color="#FF9B4F" offset=".234"/><stop stop-color="#FF9C4F" offset=".242"/><stop stop-color="#FF9C4F" offset=".25"/><stop stop-color="#FF9D4F" offset=".258"/><stop stop-color="#FF9E4F" offset=".266"/><stop stop-color="#FF9F4F" offset=".273"/><stop stop-color="#FF9F4F" offset=".281"/><stop stop-color="#FFA04F" offset=".289"/><stop stop-color="#FFA14F" offset=".297"/><stop stop-color="#FFA150" offset=".305"/><stop stop-color="#FFA250" offset=".313"/><stop stop-color="#FFA350" offset=".32"/><stop stop-color="#FFA350" offset=".321"/><stop stop-color="#FFA450" offset=".328"/><stop stop-color="#FFA450" offset=".336"/><stop stop-color="#FFA550" offset=".344"/><stop stop-color="#FFA650" offset=".352"/><stop stop-color="#FFA650" offset=".359"/><stop stop-color="#FFA750" offset=".367"/><stop stop-color="#FFA851" offset=".375"/><stop stop-color="#FFA851" offset=".383"/><stop stop-color="#FFA951" offset=".391"/><stop stop-color="#FFAA51" offset=".398"/><stop stop-color="#FFAB51" offset=".406"/><stop stop-color="#FFAB51" offset=".414"/><stop stop-color="#FFAC51" offset=".422"/><stop stop-color="#FFAD51" offset=".43"/><stop stop-color="#FFAD51" offset=".438"/><stop stop-color="#FFAE52" offset=".445"/><stop stop-color="#FFAF52" offset=".453"/><stop stop-color="#FFAF52" offset=".461"/><stop stop-color="#FFB052" offset=".469"/><stop stop-color="#FFB152" offset=".477"/><stop stop-color="#FFB252" offset=".484"/><stop stop-color="#FFB252" offset=".492"/><stop stop-color="#FFB352" offset=".5"/><stop stop-color="#FFB452" offset=".508"/><stop stop-color="#FFB452" offset=".516"/><stop stop-color="#FFB553" offset=".523"/><stop stop-color="#FFB653" offset=".531"/><stop stop-color="#FFB653" offset=".539"/><stop stop-color="#FFB753" offset=".547"/><stop stop-color="#FFB853" offset=".555"/><stop stop-color="#FFB953" offset=".563"/><stop stop-color="#FFB953" offset=".57"/><stop stop-color="#FFBA53" offset=".578"/><stop stop-color="#FFBB53" offset=".586"/><stop stop-color="#FFBB54" offset=".594"/><stop stop-color="#FFBC54" offset=".602"/><stop stop-color="#FFBD54" offset=".609"/><stop stop-color="#FFBE54" offset=".617"/><stop stop-color="#FFBE54" offset=".625"/><stop stop-color="#FFBF54" offset=".633"/><stop stop-color="#FFC054" offset=".641"/><stop stop-color="#FFC054" offset=".648"/><stop stop-color="#FFC154" offset=".656"/><stop stop-color="#FFC255" offset=".664"/><stop stop-color="#FFC255" offset=".672"/><stop stop-color="#FFC355" offset=".679"/><stop stop-color="#FFC355" offset=".68"/><stop stop-color="#FFC455" offset=".688"/><stop stop-color="#FFC555" offset=".695"/><stop stop-color="#FFC555" offset=".703"/><stop stop-color="#FFC655" offset=".711"/><stop stop-color="#FFC755" offset=".719"/><stop stop-color="#FFC755" offset=".727"/><stop stop-color="#FFC856" offset=".734"/><stop stop-color="#FFC956" offset=".742"/><stop stop-color="#FFC956" offset=".75"/><stop stop-color="#FFCA56" offset=".758"/><stop stop-color="#FFCB56" offset=".766"/><stop stop-color="#FFCC56" offset=".773"/><stop stop-color="#FFCC56" offset=".781"/><stop stop-color="#FFCD56" offset=".789"/><stop stop-color="#FFCE56" offset=".797"/><stop stop-color="#FFCE57" offset=".805"/><stop stop-color="#FFCF57" offset=".813"/><stop stop-color="#FFD057" offset=".82"/><stop stop-color="#FFD157" offset=".828"/><stop stop-color="#FFD157" offset=".836"/><stop stop-color="#FFD257" offset=".844"/><stop stop-color="#FFD357" offset=".852"/><stop stop-color="#FFD357" offset=".859"/><stop stop-color="#FFD457" offset=".867"/><stop stop-color="#FFD558" offset=".875"/><stop stop-color="#FFD558" offset=".883"/><stop stop-color="#FFD658" offset=".891"/><stop stop-color="#FFD758" offset=".898"/><stop stop-color="#FFD858" offset=".906"/><stop stop-color="#FFD858" offset=".914"/><stop stop-color="#FFD958" offset=".922"/><stop stop-color="#FFDA58" offset=".93"/><stop stop-color="#FFDA58" offset=".938"/><stop stop-color="#FFDB59" offset=".945"/><stop stop-color="#FFDC59" offset=".953"/><stop stop-color="#FFDC59" offset=".961"/><stop stop-color="#FFDD59" offset=".969"/><stop stop-color="#FFDE59" offset="1"/></linearGradient></defs><g clip-path="url(#a)"><g clip-path="url(#b)"><path fill="url(#c)" d="M 26.25 9.46875 L 26.25 65.714844 L 75.742188 65.714844 L 75.742188 9.46875 Z M 26.25 9.46875"/></g></g><g fill="#FFF"><g><g><path d="M 2.640625 -23.078125 C 4.242188 -23.285156 5.882812 -23.390625 7.5625 -23.390625 C 10.695312 -23.390625 13.078125 -22.65625 14.703125 -21.1875 C 16.328125 -19.71875 17.140625 -17.523438 17.140625 -14.609375 C 17.140625 -11.992188 16.25 -9.925781 14.46875 -8.40625 C 12.800781 -6.976562 10.65625 -6.265625 8.03125 -6.265625 C 7.726562 -6.265625 7.398438 -6.28125 7.046875 -6.3125 L 7.046875 0 L 2.640625 0 Z M 8.078125 -19.234375 C 7.734375 -19.234375 7.390625 -19.222656 7.046875 -19.203125 L 7.046875 -10.125 C 7.410156 -10.070312 7.859375 -10.046875 8.390625 -10.046875 C 8.921875 -10.046875 9.472656 -10.15625 10.046875 -10.375 C 10.617188 -10.601562 11.101562 -10.921875 11.5 -11.328125 C 12.3125 -12.171875 12.71875 -13.273438 12.71875 -14.640625 C 12.71875 -17.703125 11.171875 -19.234375 8.078125 -19.234375 Z M 8.078125 -19.234375" transform="translate(92.206 49.131)"/></g></g></g><g fill="#FFF"><g><g><path d="M 7.625 0.109375 C 6.519531 0.0351562 5.207031 0 3.6875 0 L 3.140625 0 L 3.140625 -23.046875 C 3.859375 -22.992188 4.363281 -22.96875 4.65625 -22.96875 L 5.375 -22.96875 C 6.28125 -22.96875 7.03125 -23.007812 7.625 -23.09375 L 7.625 -13.90625 L 15.75 -13.90625 L 15.75 -23.046875 C 16.695312 -22.992188 17.625 -22.96875 18.53125 -22.96875 C 19.4375 -22.96875 20.003906 -23.007812 20.234375 -23.09375 L 20.234375 0.109375 C 19.679688 0.0351562 18.585938 0 16.953125 0 L 15.75 0 L 15.75 -9.75 L 7.625 -9.75 Z M 7.625 0.109375" transform="translate(114.862 49.131)"/></g></g></g><g fill="#FFF"><g><g><path d="M 4.84375 -2.71875 C 3.800781 -3.726562 2.976562 -4.929688 2.375 -6.328125 C 1.769531 -7.734375 1.46875 -9.273438 1.46875 -10.953125 C 1.46875 -12.628906 1.75 -14.210938 2.3125 -15.703125 C 2.875 -17.203125 3.675781 -18.519531 4.71875 -19.65625 C 5.769531 -20.800781 7.035156 -21.707031 8.515625 -22.375 C 10.003906 -23.050781 11.671875 -23.390625 13.515625 -23.390625 C 16.691406 -23.390625 19.367188 -22.390625 21.546875 -20.390625 C 23.867188 -18.242188 25.03125 -15.351562 25.03125 -11.71875 C 25.03125 -8.195312 23.832031 -5.269531 21.4375 -2.9375 C 19.96875 -1.5 18.210938 -0.507812 16.171875 0.03125 C 15.171875 0.300781 14 0.4375 12.65625 0.4375 C 11.320312 0.4375 9.945312 0.160156 8.53125 -0.390625 C 7.125 -0.941406 5.894531 -1.71875 4.84375 -2.71875 Z M 6.265625 -11.1875 C 6.265625 -10.113281 6.441406 -9.128906 6.796875 -8.234375 C 7.160156 -7.335938 7.65625 -6.566406 8.28125 -5.921875 C 9.632812 -4.566406 11.367188 -3.890625 13.484375 -3.890625 C 15.492188 -3.890625 17.109375 -4.535156 18.328125 -5.828125 C 19.578125 -7.179688 20.203125 -9.019531 20.203125 -11.34375 C 20.203125 -13.53125 19.609375 -15.351562 18.421875 -16.8125 C 17.140625 -18.382812 15.390625 -19.171875 13.171875 -19.171875 C 11.015625 -19.171875 9.304688 -18.375 8.046875 -16.78125 C 6.859375 -15.289062 6.265625 -13.425781 6.265625 -11.1875 Z M 6.265625 -11.1875" transform="translate(143.352 49.131)"/></g></g></g><g fill="#FFF"><g><g><path d="M 14.515625 -4.140625 C 15.234375 -4.140625 15.726562 -4.207031 16 -4.34375 L 16.078125 -4.328125 L 15.90625 0 L 2.96875 0 L 2.96875 -23.078125 C 3.28125 -23.054688 3.625 -23.039062 4 -23.03125 L 5.21875 -23 C 6.019531 -22.976562 6.894531 -22.96875 7.84375 -22.96875 C 10.476562 -22.96875 13.082031 -23.007812 15.65625 -23.09375 C 15.53125 -22.082031 15.46875 -20.734375 15.46875 -19.046875 C 15.46875 -18.859375 15.476562 -18.71875 15.5 -18.625 L 15.46875 -18.578125 C 14.875 -18.753906 14.023438 -18.84375 12.921875 -18.84375 L 7.46875 -18.84375 L 7.46875 -14.4375 L 11.5625 -14.4375 C 12.832031 -14.4375 13.59375 -14.46875 13.84375 -14.53125 L 13.90625 -10.265625 C 13.34375 -10.328125 12.625 -10.359375 11.75 -10.359375 L 7.46875 -10.359375 L 7.46875 -4.140625 Z M 14.515625 -4.140625" transform="translate(174.792 49.131)"/></g></g></g><g fill="#FFF"><g><g><path d="M 3.125 0 C 3.195312 -0.394531 3.234375 -0.820312 3.234375 -1.28125 L 3.234375 -22.96875 L 6.6875 -22.96875 L 15.828125 -8.5625 L 15.828125 -21.78125 C 15.828125 -22.414062 15.769531 -22.8125 15.65625 -22.96875 L 20.328125 -22.96875 C 20.265625 -22.5 20.234375 -21.988281 20.234375 -21.4375 L 20.234375 0 L 16.640625 0 L 7.625 -13.828125 L 7.625 0 Z M 3.125 0" transform="translate(197.448 49.131)"/></g></g></g><g fill="#FFF"><g><g><path d="M 3.5 -23.03125 C 4.65625 -22.988281 5.351562 -22.96875 5.59375 -22.96875 L 6.84375 -22.96875 C 7.445312 -22.96875 7.929688 -23.007812 8.296875 -23.09375 L 8.28125 0 L 3.5 0 Z M 3.5 -23.03125" transform="translate(225.851 49.131)"/></g></g></g><g fill="#FFF"><g><g><path d="M 13.453125 -21.28125 C 13.691406 -21.789062 13.8125 -22.171875 13.8125 -22.421875 C 13.8125 -22.671875 13.789062 -22.851562 13.75 -22.96875 L 19.953125 -22.96875 C 19.828125 -22.820312 19.664062 -22.65625 19.46875 -22.46875 C 19.28125 -22.28125 19.0625 -22.050781 18.8125 -21.78125 C 18.238281 -21.144531 17.710938 -20.398438 17.234375 -19.546875 L 13.0625 -11.953125 L 16.953125 -4.640625 L 17.421875 -3.6875 C 18.296875 -1.875 19.035156 -0.644531 19.640625 0 L 14.015625 0 C 13.972656 -0.40625 13.78125 -0.945312 13.4375 -1.625 L 10.046875 -8.109375 C 7.660156 -3.285156 6.441406 -0.800781 6.390625 -0.65625 C 6.328125 -0.457031 6.28125 -0.238281 6.25 0 L 0.625 0 C 1.050781 -0.4375 1.488281 -1.050781 1.9375 -1.84375 L 4 -5.53125 L 7.6875 -11.75 L 2.84375 -20.859375 C 2.332031 -21.835938 1.878906 -22.539062 1.484375 -22.96875 L 7.28125 -22.96875 C 7.238281 -22.851562 7.21875 -22.722656 7.21875 -22.578125 C 7.21875 -22.265625 7.363281 -21.832031 7.65625 -21.28125 L 10.53125 -15.515625 Z M 13.453125 -21.28125" transform="translate(242.605 49.131)"/></g></g></g></svg>